 The Matrix 1999              


General                          : The Matrix (1999)BRRip 720p[Dual Audio][Eng Hindi]Current_HD
Format                           : Matroska
File size                        : 765 MiB
Duration                         : 2h 16mn
Overall bit rate                 : 784 Kbps
Encoded date                     : UTC 2011-04-02 09:08:39
Writing application              : mkvmerge v4.6.0 
Writing library                  : libebml v1.2.0 
Video
ID                               : 1
Format                           : AVC
Format/Info                      : Advanced Video Codec
Format profile                   : High@L4.1
Format settings, CABAC           : Yes
Format settings, ReFrames        : 4 frames
Muxing mode                      : Header stripping
Codec ID                         : V_MPEG4/ISO/AVC
Duration                         : 2h 16mn
Nominal bit rate                 : 524 Kbps
Width                            : 1 280 pixels
Height                           : 528 pixels
Display aspect ratio             : 2.40:1
Frame rate                       : 23.976 fps
Color space                      : YUV
Chroma subsampling               : 4:2:0
Bit depth                        : 8 bits
Scan type                        : Progressive
Bits/(Pixel*Frame)               : 0.032
Title                            : CurrentHD
Writing library                  : x264 core 68 r1183M f21daff
Language                         : English

Audio #1
ID                               : 2
Format                           : AAC
Format/Info                      : Advanced Audio Codec
Format profile                   : HE-AAC / LC
Codec ID                         : A_AAC
Duration                         : 2h 16mn
Channel(s)                       : 2 channels
Channel positions                : Front: L R
Sampling rate                    : 48.0 KHz / 24.0 KHz
Compression mode                 : Lossy
Title                            : CurrentHD
Language                         : English

Audio #2
ID                               : 3
Format                           : AC-3
Format/Info                      : Audio Coding 3
Mode extension                   : CM (complete main)
Muxing mode                      : Header stripping
Codec ID                         : AC3
Duration                         : 2h 16mn
Bit rate mode                    : Constant
Bit rate                         : 224 Kbps
Channel(s)                       : 6 channels
Channel positions                : Front: L C R, Side: L R, LFE
Sampling rate                    : 48.0 KHz
Bit depth                        : 16 bits
Compression mode                 : Lossy
Stream size                      : 219 MiB (29%)
Title                            : CurrentHD
Language                         : Hindi

Text
ID                               : 4
Format                           : UTF-8
Codec ID                         : S_TEXT/UTF8
Codec ID/Info                    : UTF-8 Plain Text
Title                            : CurrentHD
Language                         : English


The Matrix Reloaded

General
Complete name                    : The Matrix Reloaded  BRRip 720p[Dual Audio][Eng Hindi]Current_HD
Format                           : Matroska
File size                        : 768 MiB
Duration                         : 2h 18mn
Overall bit rate                 : 776 Kbps
Encoded date                     : UTC 2011-04-02 09:14:45
Writing application              : mkvmerge v4.6.0 
Writing library                  : libebml v1.2.0

Video
ID                               : 1
Format                           : AVC
Format/Info                      : Advanced Video Codec
Format profile                   : High@L4.1
Format settings, CABAC           : Yes
Format settings, ReFrames        : 4 frames
Muxing mode                      : Header stripping
Codec ID                         : V_MPEG4/ISO/AVC
Duration                         : 2h 18mn
Nominal bit rate                 : 516 Kbps
Width                            : 1 280 pixels
Height                           : 528 pixels
Display aspect ratio             : 2.40:1
Frame rate                       : 23.976 fps
Color space                      : YUV
Chroma subsampling               : 4:2:0
Bit depth                        : 8 bits
Scan type                        : Progressive
Bits/(Pixel*Frame)               : 0.032
Title                            : CurrentHD
Writing library                  : x264 core 68 r1183M f21daff
Language                         : English

Audio #1
ID                               : 2
Format                           : AAC
Format/Info                      : Advanced Audio Codec
Format profile                   : HE-AAC / LC
Codec ID                         : A_AAC
Duration                         : 2h 18mn
Channel(s)                       : 2 channels
Channel positions                : Front: L R
Sampling rate                    : 48.0 KHz / 24.0 KHz
Compression mode                 : Lossy
Title                            : CurrentHD
Language                         : English

Audio #2
ID                               : 3
Format                           : AC-3
Format/Info                      : Audio Coding 3
Mode extension                   : CM (complete main)
Muxing mode                      : Header stripping
Codec ID                         : A_AC3
Duration                         : 2h 18mn
Bit rate mode                    : Constant
Bit rate                         : 224 Kbps
Channel(s)                       : 6 channels
Channel positions                : Front: L C R, Side: L R, LFE
Sampling rate                    : 48.0 KHz
Bit depth                        : 16 bits
Compression mode                 : Lossy
Stream size                      : 222 MiB (29%)
Title                            : CurrentHD
Language                         : Hindi

Text
ID                               : 4
Format                           : UTF-8
Codec ID                         : S_TEXT/UTF8
Codec ID/Info                    : UTF-8 Plain Text
Title                            : CurrentHD
Language                         : English



The Matrix Revolutions

General
Complete name                    : The Matrix Revolutions BRRip 720p[Dual Audio][Eng Hindi]Current_HD
Format                           : Matroska
File size                        : 703 MiB
Duration                         : 2h 9mn
Overall bit rate                 : 760 Kbps
Encoded date                     : UTC 2011-04-02 09:18:32
Writing application              : mkvmerge v4.6.0 
Writing library                  : libebml v1.2.0 

Video
ID                               : 1
Format                           : AVC
Format/Info                      : Advanced Video Codec
Format profile                   : High@L4.1
Format settings, CABAC           : Yes
Format settings, ReFrames        : 4 frames
Muxing mode                      : Header stripping
Codec ID                         : V_MPEG4/ISO/AVC
Duration                         : 2h 9mn
Nominal bit rate                 : 500 Kbps
Width                            : 1 280 pixels
Height                           : 528 pixels
Display aspect ratio             : 2.40:1
Frame rate                       : 23.976 fps
Color space                      : YUV
Chroma subsampling               : 4:2:0
Bit depth                        : 8 bits
Scan type                        : Progressive
Bits/(Pixel*Frame)               : 0.031
Title                            : CurrentHD
Writing library                  : x264 core 68 r1183M f21daff
Language                         : English

Audio #1
ID                               : 2
Format                           : AAC
Format/Info                      : Advanced Audio Codec
Format profile                   : HE-AAC / LC
Codec ID                         : A_AAC
Duration                         : 2h 9mn
Channel(s)                       : 2 channels
Channel positions                : Front: L R
Sampling rate                    : 48.0 KHz / 24.0 KHz
Compression mode                 : Lossy
Title                            : CurrentHD
Language                         : English

Audio #2
ID                               : 3
Format                           : AC-3
Format/Info                      : Audio Coding 3
Mode extension                   : CM (complete main)
Muxing mode                      : Header stripping
Codec ID                         : A_AC3
Duration                         : 2h 9mn
Bit rate mode                    : Constant
Bit rate                         : 224 Kbps
Channel(s)                       : 6 channels
Channel positions                : Front: L C R, Side: L R, LFE
Sampling rate                    : 48.0 KHz
Bit depth                        : 16 bits
Compression mode                 : Lossy
Stream size                      : 207 MiB (29%)
Title                            : CurrentHD
Language                         : Hindi

Text
ID                               : 4
Format                           : UTF-8
Codec ID                         : S_TEXT/UTF8
Codec ID/Info                    : UTF-8 Plain Text
Title                            : CurrentHD
Language                         : English



SCREENSHOTS
 
http://img805.imageshack.us/img805/7590/vlcsnap2011040201h57m28.png 
http://img813.imageshack.us/img813/875/vlcsnap2011040201h57m50.png 
http://img860.imageshack.us/img860/5551/vlcsnap2011040201h58m09.png 
http://img833.imageshack.us/img833/2316/vlcsnap2011040201h58m19.png 
http://img716.imageshack.us/img716/4681/vlcsnap2011040202h43m53.png 
http://img218.imageshack.us/img218/6640/vlcsnap2011040202h44m08.png 
http://img831.imageshack.us/img831/7204/vlcsnap2011040202h44m38.png 
http://img651.imageshack.us/img651/606/vlcsnap2011040202h45m04.png 
http://img850.imageshack.us/img850/2455/vlcsnap2011040202h46m11.png 
http://img850.imageshack.us/img850/4124/vlcsnap2011040202h46m23.png 
http://img852.imageshack.us/img852/2490/vlcsnap2011040202h46m30.png



                ORIGINAL AC3 5.1 channels Hindi